{"title":"Insidious Chapter 3 {2015} CAM XVID AC3 MRG","uid":11997333,"size":1459075669,"categoryP":"video","categoryS":"movies","magnet":"?xt=urn:btih:cdffb34a6c9f3e43006428aec7ac5ca685aed548&amp;dn=Insidious+Chapter+3+%7B2015%7D+CAM+XVID+AC3+MRG&amp;tr=udp%3A%2F%2Ftracker.openbittorrent.com%3A80&amp;tr=udp%3A%2F%2Fopen.demonii.com%3A1337&amp;tr=udp%3A%2F%2Ftracker.coppersurfer.tk%3A6969&amp;tr=udp%3A%2F%2Fexodus.desync.com%3A6969","seeders":26,"leechers":0,"uploader":"makintos13","files":8,"time":1433696813,"description":"Insidious Chapter 3 {2015} CAM XVID AC3 MRG\n\nscreens:\n &lt;a href=&quot;\nhttp://imgmak.com/UQ&quot; rel=&quot;nofollow&quot; target=&quot;_NEW&quot;&gt;\nhttp://imgmak.com/UQ&lt;/a&gt;\n &lt;a href=&quot;\nhttp://imgmak.com/US&quot; rel=&quot;nofollow&quot; target=&quot;_NEW&quot;&gt;\nhttp://imgmak.com/US&lt;/a&gt;\n &lt;a href=&quot;\nhttp://imgmak.com/UZ&quot; rel=&quot;nofollow&quot; target=&quot;_NEW&quot;&gt;\nhttp://imgmak.com/UZ&lt;/a&gt;\n &lt;a href=&quot;\nhttp://imgmak.com/Uc&quot; rel=&quot;nofollow&quot; target=&quot;_NEW&quot;&gt;\nhttp://imgmak.com/Uc&lt;/a&gt;\n\nInsidious Chapter 3 {2015} CAM XVID AC3 MRG\n\nFormat : AVI\nFormat/Info : Audio Video Interleave\nFile size : 1.36 GiB\nDuration : 1h 31mn\nOverall bit rate : 2 114 Kbps\n\nVideo\nID : 0\nFormat : MPEG-4 Visual\nFormat profile : Advanced Simple@L5\nFormat settings, BVOP : 2\nFormat settings, QPel : Yes\nFormat settings, GMC : No warppoints\nFormat settings, Matrix : Default (H.263)\nMuxing mode : Packed bitstream\nCodec ID : XVID\nCodec ID/Hint : XviD\nDuration : 1h 31mn\nBit rate : 1 975 Kbps\nWidth : 720 pixels\nHeight : 384 pixels\nDisplay aspect ratio : 1.85:1\nFrame rate : 30.000 fps\nColor space : YUV\nChroma subsampling : 4:2:0\nBit depth : 8 bits\nScan type : Progressive\nCompression mode : Lossy\nBits/(Pixel*Frame) : 0.238\nStream size : 1.27 GiB (93%)\nWriting library : XviD\n\nAudio\nID : 1\nFormat : AC-3\nFormat/Info : Audio Coding 3\nMode extension : CM (complete main)\nFormat settings, Endianness : Big\nCodec ID : 2000\nDuration : 1h 31mn\nBit rate mode : Constant\nBit rate : 128 Kbps\nChannel(s) : 2 channels\nChannel positions : Front: L R\nSampling rate : 44.1 KHz\nCompression mode : Lossy\nStream size : 84.1 MiB (6%)\nAlignment : Aligned on interleaves\nInterleave, duration : 35 ms (1.05 video frame)","torrent":{"xt":"urn:btih:cdffb34a6c9f3e43006428aec7ac5ca685aed548","amp;dn":"Insidious+Chapter+3+%7B2015%7D+CAM+XVID+AC3+MRG","amp;tr":["udp%3A%2F%2Ftracker.openbittorrent.com%3A80","udp%3A%2F%2Fopen.demonii.com%3A1337","udp%3A%2F%2Ftracker.coppersurfer.tk%3A6969","udp%3A%2F%2Fexodus.desync.com%3A6969"],"infoHash":"cdffb34a6c9f3e43006428aec7ac5ca685aed548","infoHashBuffer":{"type":"Buffer","data":[205,255,179,74,108,159,62,67,0,100,40,174,199,172,92,166,133,174,213,72]},"announce":[],"urlList":[]}}